<svg width="24" height="24" viewBox="0 0 24 24" fill="none" xmlns="http://www.w3.org/2000/svg">
<g id="fruit 1" clip-path="url(#clip0_13_3336)">
<g id="Group">
<path id="Vector" d="M24 11.3566C24 8.25383 22.7918 5.33685 20.5979 3.14297C20.4608 3.00592 20.2385 3.00592 20.1014 3.14297L7.84872 15.3956C6.93763 14.9146 6.10498 15.0541 5.14985 15.2213C4.71637 13.6573 3.62948 13.0516 3.57218 13.0207C3.40148 12.9287 3.1886 12.9927 3.09668 13.1634C3.00475 13.3341 3.06859 13.547 3.23934 13.6389C3.2495 13.6443 3.98628 14.0557 4.38091 15.127C3.24608 14.8454 2.03683 15.2346 1.22755 16.0638C0.115844 12.0097 1.45264 5.92745 6.62866 5.93466C8.93126 5.93466 10.9641 7.45002 11.7234 9.60177C11.7878 9.7846 11.9884 9.88065 12.1711 9.81615C12.354 9.75169 12.4499 9.55122 12.3855 9.36839C11.941 8.10621 11.1304 7.01622 10.0165 6.26671C10.1163 5.74589 10.3293 5.24871 10.6392 4.81753L11.102 4.17351C11.5465 3.55492 10.8597 2.69564 10.1524 3.01805L9.0501 3.52122C9.02595 2.57886 9.26546 1.85476 9.83678 1.10497C10.0105 0.86321 10.0002 0.546236 9.81123 0.316275C9.62222 0.0862206 9.3132 0.0148873 9.04238 0.138316C8.06071 0.586396 7.11385 0.984206 6.58751 2.00637C6.06515 0.991929 5.10927 0.584056 4.13265 0.138316C3.86187 0.0146532 3.55281 0.0862674 3.36385 0.316228C3.17484 0.546236 3.16455 0.863164 3.33825 1.10497C3.90671 1.85546 4.15128 2.57708 4.12497 3.52122L3.02253 3.01805C2.32966 2.70187 1.61946 3.54223 2.07302 4.17351L2.53584 4.81753C2.84996 5.25461 3.06433 5.75914 3.16235 6.28763C-0.0556561 8.47654 -0.403429 13.3482 0.700131 16.7489C-0.184093 18.2105 -0.224347 20.422 0.542907 21.9352C0.630623 22.1081 0.841861 22.1772 1.01476 22.0895C1.18767 22.0019 1.2568 21.7906 1.16913 21.6177C0.321044 19.9447 0.57483 17.1063 2.32699 16.0865C3.09391 15.6402 3.7662 15.7424 4.57586 15.9044C4.60656 16.1136 4.62458 16.3388 4.62458 16.5826C4.62458 16.7765 4.78171 16.9337 4.97563 16.9337C5.16955 16.9337 5.32668 16.7765 5.32668 16.5826C5.32668 16.3445 5.31222 16.1205 5.28624 15.9098C6.11346 15.7576 6.81003 15.6079 7.59985 16.0589C9.82185 17.3278 9.82583 21.6451 7.59175 22.8914C6.97746 23.2341 6.19153 23.3265 5.52533 23.0796C5.14596 22.9578 4.74492 22.9578 4.36556 23.0796C3.62297 23.3184 2.84682 23.2074 2.18034 22.7673C2.01858 22.6604 1.80079 22.7049 1.69398 22.8667C1.58712 23.0285 1.63163 23.2462 1.79344 23.3531C2.6288 23.9048 3.64464 24.0488 4.5804 23.748C4.81916 23.6712 5.07163 23.6712 5.31049 23.748C6.17819 24.0418 7.13347 23.9511 7.93381 23.5046C8.20801 23.3516 8.46006 23.1607 8.68506 22.9388C9.50057 23.5743 10.5033 23.9217 11.5455 23.9217C12.7255 23.9217 13.8041 23.4805 14.6258 22.7547C16.8933 22.311 18.9565 21.2116 20.5979 19.5703C22.7918 17.3763 24 14.4594 24 11.3566ZM3.10599 4.40778L2.64317 3.76377C2.61756 3.68303 2.64686 3.64736 2.73102 3.65682C3.2561 3.89647 3.80098 4.11295 4.30976 4.38634C4.41859 4.4449 4.55012 4.4419 4.65609 4.37848C4.76215 4.3151 4.82702 4.20066 4.82702 4.07714C4.82702 2.87262 4.79426 1.8799 4.02869 0.862696C5.16904 1.38323 6.23642 2.00913 6.23642 3.45162C6.23642 3.64554 6.39355 3.80267 6.58747 3.80267C6.78139 3.80267 6.93852 3.64554 6.93852 3.45162C6.93852 2.01662 8.00604 1.38323 9.1462 0.862742C8.38072 1.87994 8.34796 2.87262 8.34796 4.07714C8.34796 4.20071 8.41293 4.3151 8.51894 4.37848C8.62501 4.44181 8.75649 4.44481 8.86531 4.38625C9.37401 4.11267 9.91869 3.89647 10.4439 3.65677C10.528 3.64731 10.5573 3.68298 10.5318 3.76372L10.069 4.40778C9.74818 4.85432 9.51466 5.3603 9.38089 5.89244C8.53172 5.45948 7.59451 5.23256 6.6287 5.23256C5.64717 5.2247 4.67046 5.4592 3.79831 5.9092C3.66524 5.37087 3.43036 4.85914 3.10599 4.40778ZM9.13524 22.3997C10.2889 20.7285 10.2356 17.8821 8.9358 16.2912C9.65747 15.655 10.5721 15.3072 11.5456 15.3072C13.7269 15.3072 15.5017 17.0819 15.5017 19.2634C15.5017 21.4447 13.727 23.2195 11.5456 23.2195C10.6685 23.2195 9.82433 22.93 9.13524 22.3997ZM15.4239 21.8405C15.7085 21.4137 15.9247 20.9377 16.0564 20.4279C17.2737 19.9362 18.3654 19.213 19.3031 18.2753C20.6742 16.9041 21.5993 15.1785 21.9781 13.2849C22.0161 13.0948 21.8929 12.9098 21.7027 12.8718C21.5125 12.8336 21.3277 12.957 21.2896 13.1471C20.938 14.9044 20.0795 16.506 18.8066 17.7789C18.0395 18.5459 17.1616 19.158 16.1912 19.605C16.3848 16.9461 14.213 14.6051 11.5456 14.6051C10.408 14.6051 9.33815 15.0076 8.49147 15.7459L19.0502 5.18716C20.6367 6.8978 21.4923 9.11096 21.4663 11.4578C21.4641 11.6517 21.6196 11.8106 21.8134 11.8128C22.007 11.8146 22.1662 11.6595 22.1684 11.4656C22.1964 8.92827 21.2675 6.53645 19.5464 4.69087L20.3458 3.89151C22.2523 5.92151 23.2979 8.55859 23.2979 11.3566C23.2979 14.2718 22.1627 17.0124 20.1014 19.0737C18.7876 20.3875 17.1863 21.3319 15.4239 21.8405Z" fill="black"/>
<path id="Vector_2" d="M16.8044 15.2802C16.6672 15.1432 16.445 15.1432 16.3079 15.2802C16.1708 15.4174 16.1708 15.6396 16.3079 15.7767L16.838 16.3068C16.9066 16.3753 16.9965 16.4096 17.0863 16.4096C17.1761 16.4096 17.266 16.3753 17.3346 16.3068C17.4717 16.1697 17.4717 15.9474 17.3346 15.8103L16.8044 15.2802Z" fill="black"/>
<path id="Vector_3" d="M18.7008 13.5696L18.0174 13.2651C17.8403 13.1861 17.6328 13.2658 17.5539 13.4429C17.475 13.62 17.5546 13.8275 17.7317 13.9064L18.415 14.2109C18.4615 14.2316 18.5099 14.2413 18.5577 14.2413C18.6921 14.2413 18.8203 14.1637 18.8785 14.0331C18.9574 13.856 18.8778 13.6485 18.7008 13.5696Z" fill="black"/>
<path id="Vector_4" d="M19.1508 10.9713L18.4077 10.9341C18.4017 10.9337 18.3957 10.9336 18.3898 10.9336C18.204 10.9336 18.0489 11.0794 18.0395 11.2671C18.0298 11.4607 18.1789 11.6256 18.3725 11.6352L19.1156 11.6725C19.1216 11.6728 19.1276 11.673 19.1335 11.673C19.3193 11.673 19.4744 11.5272 19.4838 11.3395C19.4935 11.1459 19.3444 10.981 19.1508 10.9713Z" fill="black"/>
<path id="Vector_5" d="M18.0298 9.29097C18.0668 9.29097 18.1045 9.28508 18.1414 9.27267L18.8427 9.03756C19.0266 8.97592 19.1256 8.77694 19.064 8.59313C19.0024 8.40928 18.8033 8.31028 18.6196 8.37183L17.9183 8.60694C17.7344 8.66859 17.6354 8.86756 17.697 9.05137C17.7462 9.1982 17.883 9.29097 18.0298 9.29097Z" fill="black"/>
<path id="Vector_6" d="M6.58745 10.2231C6.67727 10.2231 6.76714 10.1888 6.83566 10.1203L7.60914 9.34687C7.74629 9.20977 7.74629 8.98748 7.60919 8.85044C7.47209 8.71339 7.24981 8.71329 7.11276 8.85039L6.58745 9.37565L6.06214 8.85039C5.92509 8.71334 5.7028 8.71329 5.56571 8.85044C5.42861 8.98753 5.42861 9.20982 5.56575 9.34687L6.33923 10.1203C6.40776 10.1888 6.49763 10.2231 6.58745 10.2231Z" fill="black"/>
<path id="Vector_7" d="M9.75346 10.2231C9.84329 10.2231 9.93316 10.1888 10.0017 10.1203L10.7752 9.34687C10.9123 9.20977 10.9123 8.98748 10.7752 8.85044C10.6381 8.71334 10.4158 8.71329 10.2788 8.85039L9.75346 9.37565L9.22815 8.85039C9.0911 8.71334 8.86882 8.71329 8.73172 8.85044C8.59463 8.98753 8.59463 9.20982 8.73177 9.34687L9.50525 10.1203C9.57377 10.1888 9.66364 10.2231 9.75346 10.2231Z" fill="black"/>
<path id="Vector_8" d="M5.51403 11.0672L4.98877 11.5925L4.46355 11.0673C4.32641 10.9302 4.10412 10.9301 3.96712 11.0672C3.82998 11.2043 3.82998 11.4266 3.96707 11.5637L4.74051 12.3371C4.80636 12.403 4.89562 12.44 4.98877 12.44C5.08191 12.44 5.17113 12.403 5.23703 12.3372L6.01051 11.5637C6.14761 11.4266 6.14761 11.2043 6.01051 11.0672C5.87341 10.9302 5.65118 10.9302 5.51403 11.0672Z" fill="black"/>
<path id="Vector_9" d="M7.90652 12.3372C7.97238 12.4031 8.06164 12.44 8.15478 12.44C8.24793 12.44 8.33714 12.4031 8.40305 12.3372L9.17653 11.5638C9.31362 11.4266 9.31362 11.2044 9.17653 11.0673C9.03938 10.9302 8.81715 10.9302 8.68005 11.0673L8.15478 11.5926L7.62957 11.0673C7.49247 10.9302 7.27019 10.9302 7.13314 11.0673C6.99599 11.2044 6.99599 11.4267 7.13309 11.5637L7.90652 12.3372Z" fill="black"/>
<path id="Vector_10" d="M12.3315 17.1448C12.5254 17.1448 12.6826 16.9877 12.6826 16.7938C12.6826 16.5999 12.5254 16.4427 12.3315 16.4427C12.1376 16.4427 11.9805 16.5999 11.9805 16.7938C11.9805 16.9877 12.1376 17.1448 12.3315 17.1448Z" fill="black"/>
</g>
</g>
<defs>
<clipPath id="clip0_13_3336">
<rect width="24" height="24" fill="white"/>
</clipPath>
</defs>
</svg>
