<svg width="24" height="24" viewBox="0 0 24 24" fill="none" xmlns="http://www.w3.org/2000/svg">
<g id="gift-box 1" clip-path="url(#clip0_13_3402)">
<path id="Vector" d="M16.535 13.6629H4.1617L14.8764 6.85039C14.9076 6.83057 14.9345 6.80481 14.9557 6.77457C14.977 6.74433 14.992 6.7102 15 6.67414C15.0081 6.63808 15.0089 6.60079 15.0025 6.56441C14.9961 6.52802 14.9826 6.49325 14.9628 6.46208L13.9012 4.79248C13.6591 4.41263 13.2763 4.14432 12.8366 4.04642C12.3969 3.94853 11.9363 4.02904 11.5559 4.2703L10.0482 5.22894L10.1676 4.65749C10.2147 4.45088 10.2205 4.23701 10.1847 4.02816C10.1489 3.81931 10.0721 3.6196 9.95887 3.44049C9.84562 3.26139 9.6981 3.10644 9.52479 2.98452C9.35147 2.86261 9.15577 2.77614 8.94893 2.73009C8.7421 2.68404 8.5282 2.67931 8.31953 2.71618C8.11086 2.75305 7.91153 2.83079 7.733 2.94493C7.55446 3.05906 7.40024 3.20735 7.27919 3.38128C7.15814 3.5552 7.07265 3.75133 7.02763 3.95839L6.24435 7.47655L3.62165 6.89277C3.23052 6.8056 2.82095 6.86756 2.47311 7.06652C2.12527 7.26548 1.86422 7.58711 1.74107 7.96843C1.61792 8.34976 1.64154 8.76333 1.8073 9.12815C1.97307 9.49298 2.26904 9.7828 2.63727 9.94086L1.02205 10.9679C0.64221 11.21 0.373909 11.5929 0.276013 12.0325C0.178118 12.4722 0.258623 12.9328 0.499867 13.3131L1.56145 14.9828C1.58126 15.014 1.60702 15.0409 1.63725 15.0621C1.66749 15.0834 1.70161 15.0984 1.73766 15.1064C1.77372 15.1145 1.811 15.1153 1.84739 15.1089C1.88377 15.1026 1.91854 15.0891 1.94971 15.0693L2.93784 14.4411V21.5609C2.93834 22.0113 3.11752 22.4432 3.43604 22.7617C3.75456 23.0802 4.18642 23.2593 4.63687 23.2598H15.1174C15.5678 23.2593 15.9996 23.0802 16.3181 22.7617C16.6366 22.4432 16.8158 22.0113 16.8163 21.5609V13.9442C16.8163 13.9072 16.809 13.8707 16.7949 13.8365C16.7807 13.8024 16.76 13.7714 16.7339 13.7453C16.7078 13.7191 16.6768 13.6984 16.6426 13.6843C16.6085 13.6702 16.5719 13.6629 16.535 13.6629ZM11.8578 4.74505C12.0392 4.62904 12.25 4.56733 12.4653 4.5672C12.5491 4.56725 12.6327 4.57647 12.7145 4.59472C12.8603 4.62679 12.9983 4.68745 13.1206 4.77321C13.2428 4.85896 13.3468 4.9681 13.4265 5.09431L14.3372 6.52658L9.90754 9.34311L8.3871 6.95183L11.8578 4.74505ZM7.57668 4.08069C7.63744 3.81001 7.80324 3.57456 8.0376 3.42613C8.27196 3.2777 8.55569 3.22844 8.82637 3.2892C9.09704 3.34997 9.3325 3.51576 9.48093 3.75013C9.62936 3.98449 9.67861 4.26822 9.61785 4.53889L9.38694 5.64345L6.8713 7.24888L7.57668 4.08069ZM7.9123 7.25366L9.43274 9.64494L6.86587 11.2769L5.34548 8.88566L7.9123 7.25366ZM2.38945 9.02403C2.27844 8.84946 2.22169 8.64589 2.22638 8.43906C2.23107 8.23224 2.29699 8.03145 2.4158 7.86209C2.53461 7.69273 2.70098 7.5624 2.89385 7.48759C3.08673 7.41279 3.29746 7.39685 3.4994 7.44181L5.77213 7.94778L3.24923 9.5293L3.04476 9.48374C2.91056 9.45424 2.78354 9.39842 2.67106 9.31952C2.55858 9.24061 2.46286 9.14018 2.38945 9.02403ZM1.8853 14.4437L0.974664 13.0114C0.813292 12.7569 0.759433 12.4489 0.824901 12.1548C0.890369 11.8607 1.06982 11.6046 1.32388 11.4426L4.87077 9.18748L6.39116 11.5788L1.8853 14.4437ZM7.33935 22.6973H4.63687C4.33557 22.697 4.04672 22.5771 3.83367 22.3641C3.62062 22.151 3.50078 21.8622 3.50043 21.5609V14.2254H7.33949L7.33935 22.6973ZM10.9142 22.6973H7.90185V14.2254H10.9142V22.6973ZM16.2537 21.5609C16.2534 21.8622 16.1335 22.151 15.9205 22.3641C15.7075 22.5771 15.4186 22.697 15.1174 22.6973H11.4767V14.2254H16.2537V21.5609Z" fill="black"/>
<path id="Vector_2" d="M19.6796 11.108L19.8142 10.3235C19.823 10.2718 19.8172 10.2187 19.7975 10.1701C19.7777 10.1215 19.7447 10.0794 19.7023 10.0486C19.6599 10.0177 19.6096 9.99937 19.5573 9.99557C19.505 9.99177 19.4527 10.0027 19.4062 10.0271L18.7018 10.3974L17.9973 10.0271C17.9508 10.0026 17.8985 9.9917 17.8461 9.99548C17.7938 9.99926 17.7435 10.0176 17.7011 10.0485C17.6586 10.0793 17.6256 10.1214 17.6059 10.17C17.5861 10.2186 17.5803 10.2718 17.5892 10.3235L17.7237 11.108L17.1538 11.6635C17.1162 11.7001 17.0896 11.7465 17.0771 11.7975C17.0645 11.8484 17.0664 11.9019 17.0826 11.9518C17.0988 12.0017 17.1287 12.0461 17.1688 12.0799C17.2089 12.1138 17.2577 12.1357 17.3097 12.1432L18.0972 12.2577L18.4494 12.9714C18.4726 13.0185 18.5085 13.0581 18.5531 13.0858C18.5977 13.1135 18.6491 13.1282 18.7016 13.1282C18.7541 13.1282 18.8056 13.1135 18.8501 13.0858C18.8947 13.0581 18.9306 13.0185 18.9539 12.9714L19.306 12.2577L20.0935 12.1432C20.1455 12.1357 20.1943 12.1138 20.2344 12.0799C20.2745 12.0461 20.3044 12.0017 20.3206 11.9518C20.3368 11.9019 20.3387 11.8484 20.3262 11.7975C20.3136 11.7465 20.287 11.7001 20.2494 11.6635L19.6796 11.108ZM19.0788 11.7221C19.0337 11.7286 18.9908 11.746 18.954 11.7728C18.9171 11.7996 18.8872 11.835 18.8671 11.8759L18.7016 12.2112L18.5362 11.8759C18.516 11.835 18.4862 11.7997 18.4493 11.7729C18.4124 11.7461 18.3695 11.7286 18.3244 11.7221L17.9544 11.6683L18.2221 11.4073C18.2548 11.3755 18.2792 11.3362 18.2933 11.2929C18.3074 11.2495 18.3108 11.2033 18.3031 11.1584L18.2398 10.7899L18.5708 10.9638C18.6111 10.9851 18.656 10.9962 18.7016 10.9962C18.7472 10.9962 18.7922 10.9851 18.8325 10.9638L19.1634 10.7899L19.1002 11.1584C19.0925 11.2033 19.0958 11.2495 19.1099 11.2929C19.124 11.3362 19.1484 11.3755 19.1811 11.4073L19.4488 11.6683L19.0788 11.7221Z" fill="black"/>
<path id="Vector_3" d="M22.9145 7.23281L22.141 7.04485L21.8574 6.30127C21.8387 6.25222 21.8066 6.20938 21.7649 6.1776C21.7231 6.14582 21.6733 6.12636 21.621 6.12142C21.5688 6.11649 21.5162 6.12627 21.4692 6.14967C21.4222 6.17307 21.3827 6.20915 21.3552 6.25383L20.9375 6.93131L20.1426 6.9713C20.0902 6.97394 20.0396 6.99118 19.9964 7.02109C19.9533 7.051 19.9194 7.09237 19.8986 7.14053C19.8778 7.1887 19.8708 7.24173 19.8786 7.29363C19.8863 7.34553 19.9084 7.39424 19.9424 7.43424L20.4576 8.04085L20.25 8.80913C20.2363 8.85979 20.2371 8.91327 20.2522 8.96353C20.2673 9.01378 20.2962 9.05881 20.3356 9.0935C20.375 9.1282 20.4233 9.1512 20.475 9.15988C20.5268 9.16856 20.5799 9.16259 20.6285 9.14264L21.3644 8.84011L22.0313 9.27497C22.0752 9.30364 22.1263 9.31944 22.1788 9.32059C22.2313 9.32174 22.283 9.30819 22.3282 9.28147C22.3733 9.25475 22.4101 9.21593 22.4344 9.16939C22.4586 9.12286 22.4694 9.07047 22.4654 9.01814L22.4052 8.22455L23.0245 7.725C23.0654 7.69206 23.0962 7.64836 23.1135 7.59883C23.1308 7.5493 23.1339 7.49591 23.1224 7.44471C23.111 7.39351 23.0854 7.34653 23.0487 7.30909C23.0119 7.27164 22.9654 7.24522 22.9145 7.23281ZM21.9368 7.87969C21.9013 7.90831 21.8733 7.94514 21.8552 7.98699C21.8372 8.02884 21.8295 8.07446 21.833 8.11992L21.8611 8.49272L21.5479 8.28839C21.5097 8.26348 21.4661 8.24823 21.4207 8.24395C21.3753 8.23967 21.3295 8.2465 21.2873 8.26383L20.9416 8.40596L21.0391 8.04502C21.051 8.001 21.052 7.95475 21.042 7.91025C21.0321 7.86576 21.0115 7.82435 20.9819 7.7896L20.7399 7.50464L21.1133 7.48589C21.1589 7.48362 21.2032 7.4703 21.2424 7.4471C21.2817 7.42389 21.3147 7.39148 21.3387 7.35267L21.5348 7.03444L21.6681 7.38375C21.6843 7.42635 21.7107 7.46435 21.7449 7.49449C21.7791 7.52463 21.8201 7.546 21.8644 7.55677L22.2277 7.64508L21.9368 7.87969Z" fill="black"/>
<path id="Vector_4" d="M18.7781 2.66075L18.5705 3.42903C18.5568 3.4797 18.5575 3.53319 18.5726 3.58345C18.5878 3.63371 18.6166 3.67874 18.656 3.71345C18.6954 3.74816 18.7437 3.77115 18.7954 3.77984C18.8472 3.78852 18.9004 3.78255 18.9489 3.7626L19.6848 3.46002L20.3515 3.89497C20.3954 3.92365 20.4465 3.93945 20.499 3.9406C20.5514 3.94174 20.6032 3.92819 20.6484 3.90146C20.6935 3.87474 20.7303 3.83591 20.7546 3.78937C20.7788 3.74282 20.7895 3.69042 20.7856 3.6381L20.7253 2.8445L21.3448 2.34491C21.3857 2.31197 21.4165 2.26826 21.4338 2.21873C21.4511 2.1692 21.4542 2.11582 21.4427 2.06462C21.4313 2.01342 21.4057 1.96644 21.369 1.92899C21.3322 1.89155 21.2857 1.86513 21.2348 1.85272L20.4613 1.6648L20.1777 0.921174C20.159 0.872134 20.127 0.829305 20.0852 0.797532C20.0434 0.76576 19.9936 0.74631 19.9413 0.741384C19.8891 0.736458 19.8365 0.746252 19.7895 0.769659C19.7425 0.793065 19.7031 0.829149 19.6755 0.87383L19.2579 1.55127L18.463 1.59121C18.4105 1.59383 18.3599 1.61108 18.3168 1.64098C18.2737 1.67088 18.2398 1.71226 18.2189 1.76042C18.1981 1.80858 18.1911 1.86162 18.1989 1.91352C18.2066 1.96543 18.2287 2.01414 18.2627 2.05414L18.7781 2.66075ZM19.4339 2.10556C19.4795 2.10328 19.5238 2.08995 19.563 2.06674C19.6023 2.04352 19.6353 2.01111 19.6592 1.9723L19.8554 1.65406L19.9886 2.00338C20.0049 2.04598 20.0313 2.08399 20.0655 2.11414C20.0997 2.14429 20.1407 2.16567 20.185 2.17644L20.5483 2.26471L20.2573 2.49936C20.2218 2.52798 20.1938 2.5648 20.1757 2.60665C20.1576 2.6485 20.1499 2.69413 20.1534 2.7396L20.1815 3.11244L19.8683 2.90811C19.8301 2.8832 19.7865 2.86795 19.7411 2.86367C19.6957 2.85939 19.6499 2.86621 19.6077 2.88355L19.262 3.02567L19.3595 2.66474C19.3714 2.62071 19.3724 2.57445 19.3625 2.52995C19.3525 2.48544 19.3319 2.44403 19.3023 2.40927L19.0603 2.12427L19.4339 2.10556Z" fill="black"/>
<path id="Vector_5" d="M13.6756 11.1485C13.0407 11.5481 12.7305 12.0323 12.7176 12.0528C12.6776 12.1158 12.6643 12.1921 12.6806 12.2649C12.6969 12.3376 12.7415 12.401 12.8045 12.4409C12.8674 12.4809 12.9437 12.4942 13.0165 12.4779C13.0893 12.4616 13.1526 12.417 13.1926 12.3541C13.2348 12.2884 14.2524 10.7502 16.4673 11.2981C16.5394 11.3152 16.6154 11.3032 16.6787 11.2646C16.742 11.226 16.7875 11.164 16.8053 11.092C16.8231 11.0201 16.8118 10.944 16.7738 10.8803C16.7358 10.8167 16.6742 10.7706 16.6024 10.7521C15.2397 10.4149 14.2586 10.7815 13.6756 11.1485Z" fill="black"/>
<path id="Vector_6" d="M19.0126 8.16998C19.0815 8.19857 19.1589 8.19863 19.2278 8.17013C19.2968 8.14163 19.3516 8.08691 19.3801 8.01801C19.4087 7.94911 19.4088 7.87168 19.3803 7.80274C19.3518 7.7338 19.2971 7.67901 19.2282 7.65042C17.226 6.81946 15.7707 7.44173 14.9026 8.11017C14.3266 8.55809 13.8498 9.12067 13.5025 9.76232C13.4861 9.7954 13.4763 9.8314 13.4738 9.86825C13.4713 9.90509 13.476 9.94208 13.4878 9.97708C13.4996 10.0121 13.5182 10.0444 13.5424 10.0723C13.5667 10.1001 13.5962 10.1229 13.6293 10.1393C13.6624 10.1557 13.6984 10.1655 13.7352 10.168C13.7721 10.1705 13.8091 10.1658 13.8441 10.154C13.8791 10.1422 13.9114 10.1237 13.9393 10.0994C13.9671 10.0751 13.9899 10.0456 14.0063 10.0125C14.3162 9.44783 14.7379 8.95221 15.2457 8.55585C16.3373 7.71562 17.6047 7.58568 19.0126 8.16998Z" fill="black"/>
<path id="Vector_7" d="M15.852 6.08644C15.8291 6.15741 15.8353 6.23459 15.8692 6.301C15.9032 6.36741 15.9621 6.41762 16.0331 6.44058C16.4203 6.55467 16.8218 6.61269 17.2255 6.61289C17.6958 6.61289 18.239 6.528 18.7262 6.23925C19.3637 5.86153 19.7724 5.21799 19.9418 4.32675C19.9489 4.29041 19.9487 4.25303 19.9412 4.21677C19.9338 4.1805 19.9193 4.14606 19.8985 4.11542C19.8777 4.08478 19.8511 4.05854 19.8202 4.03821C19.7892 4.01788 19.7546 4.00386 19.7182 3.99695C19.6818 3.99004 19.6445 3.99038 19.6082 3.99794C19.572 4.00551 19.5376 4.02015 19.507 4.04104C19.4765 4.06192 19.4503 4.08864 19.4301 4.11965C19.4099 4.15066 19.396 4.18536 19.3892 4.22175C19.2515 4.94649 18.9327 5.46206 18.4418 5.7541C17.508 6.30971 16.2262 5.91192 16.2059 5.90546C16.135 5.88259 16.0579 5.8888 15.9915 5.92274C15.9252 5.95667 15.875 6.01555 15.852 6.08644Z" fill="black"/>
<path id="Vector_8" d="M12.1344 13.3534C12.2346 13.3534 12.3325 13.3237 12.4158 13.2681C12.4991 13.2124 12.5641 13.1333 12.6024 13.0408C12.6408 12.9482 12.6508 12.8464 12.6313 12.7481C12.6117 12.6498 12.5635 12.5596 12.4926 12.4887C12.4218 12.4179 12.3316 12.3696 12.2333 12.3501C12.135 12.3306 12.0332 12.3406 11.9406 12.3789C11.8481 12.4173 11.769 12.4822 11.7133 12.5655C11.6576 12.6488 11.6279 12.7467 11.6279 12.8469C11.6281 12.9812 11.6815 13.1099 11.7765 13.2049C11.8714 13.2998 12.0001 13.3533 12.1344 13.3534ZM12.1344 12.7909C12.1455 12.7909 12.1563 12.7942 12.1656 12.8003C12.1748 12.8065 12.182 12.8152 12.1862 12.8255C12.1904 12.8357 12.1916 12.847 12.1894 12.8579C12.1872 12.8687 12.1819 12.8787 12.1741 12.8865C12.1662 12.8944 12.1562 12.8997 12.1454 12.9019C12.1345 12.904 12.1232 12.9029 12.113 12.8987C12.1028 12.8944 12.094 12.8873 12.0879 12.878C12.0817 12.8688 12.0784 12.858 12.0784 12.8469C12.0785 12.8321 12.0844 12.8179 12.0949 12.8074C12.1054 12.7969 12.1196 12.791 12.1344 12.7909Z" fill="black"/>
<path id="Vector_9" d="M16.1198 4.16593C16.22 4.16593 16.3179 4.13622 16.4012 4.08056C16.4845 4.0249 16.5494 3.94579 16.5878 3.85324C16.6261 3.76068 16.6362 3.65883 16.6166 3.56057C16.5971 3.46232 16.5488 3.37206 16.478 3.30122C16.4071 3.23038 16.3169 3.18214 16.2186 3.1626C16.1204 3.14305 16.0185 3.15308 15.926 3.19142C15.8334 3.22976 15.7543 3.29468 15.6986 3.37798C15.643 3.46128 15.6133 3.55921 15.6133 3.65939C15.6134 3.79369 15.6668 3.92244 15.7618 4.0174C15.8568 4.11236 15.9855 4.16578 16.1198 4.16593ZM16.1198 3.60343C16.1309 3.60343 16.1417 3.60671 16.1509 3.61287C16.1602 3.61903 16.1673 3.62778 16.1716 3.63802C16.1758 3.64825 16.1769 3.65952 16.1747 3.67039C16.1726 3.68125 16.1672 3.69123 16.1594 3.69907C16.1516 3.7069 16.1416 3.71223 16.1307 3.71439C16.1198 3.71654 16.1086 3.71543 16.0983 3.71118C16.0881 3.70693 16.0794 3.69975 16.0732 3.69053C16.0671 3.68131 16.0638 3.67047 16.0638 3.65939C16.0639 3.64456 16.0698 3.63036 16.0803 3.61988C16.0908 3.6094 16.105 3.60349 16.1198 3.60343Z" fill="black"/>
<path id="Vector_10" d="M23.259 3.77966C23.1588 3.77966 23.0609 3.80937 22.9776 3.86503C22.8943 3.92069 22.8293 3.9998 22.791 4.09236C22.7527 4.18492 22.7426 4.28677 22.7622 4.38503C22.7817 4.48329 22.83 4.57354 22.9008 4.64438C22.9717 4.71522 23.0619 4.76346 23.1602 4.783C23.2584 4.80254 23.3603 4.7925 23.4528 4.75415C23.5454 4.71581 23.6245 4.65088 23.6802 4.56757C23.7358 4.48427 23.7655 4.38633 23.7655 4.28615C23.7654 4.15186 23.7119 4.02311 23.617 3.92816C23.522 3.8332 23.3933 3.7798 23.259 3.77966ZM23.259 4.34216C23.2479 4.34216 23.2371 4.33888 23.2279 4.33272C23.2186 4.32657 23.2115 4.31782 23.2072 4.30758C23.203 4.29735 23.2019 4.28609 23.204 4.27522C23.2062 4.26435 23.2115 4.25437 23.2194 4.24654C23.2272 4.2387 23.2372 4.23337 23.248 4.23121C23.2589 4.22905 23.2702 4.23016 23.2804 4.2344C23.2906 4.23864 23.2994 4.24581 23.3055 4.25503C23.3117 4.26424 23.315 4.27507 23.315 4.28615C23.3149 4.30098 23.309 4.3152 23.2985 4.32569C23.288 4.33618 23.2738 4.3421 23.259 4.34216Z" fill="black"/>
<path id="Vector_11" d="M11.9271 10.5013C11.9271 10.4011 11.8974 10.3031 11.8417 10.2198C11.7861 10.1365 11.7069 10.0716 11.6144 10.0333C11.5218 9.99492 11.4199 9.98491 11.3217 10.0045C11.2234 10.024 11.1332 10.0723 11.0623 10.1432C10.9915 10.214 10.9433 10.3043 10.9238 10.4026C10.9042 10.5009 10.9143 10.6027 10.9527 10.6953C10.9911 10.7878 11.056 10.8669 11.1394 10.9226C11.2227 10.9782 11.3207 11.0078 11.4209 11.0078C11.5551 11.0076 11.6838 10.9541 11.7787 10.8592C11.8736 10.7642 11.927 10.6355 11.9271 10.5013ZM11.4209 10.5575C11.4098 10.5575 11.399 10.5542 11.3898 10.5481C11.3806 10.542 11.3734 10.5332 11.3691 10.523C11.3649 10.5128 11.3637 10.5015 11.3659 10.4907C11.368 10.4798 11.3733 10.4698 11.3811 10.462C11.3889 10.4541 11.3989 10.4488 11.4097 10.4466C11.4206 10.4444 11.4318 10.4455 11.4421 10.4497C11.4523 10.4539 11.4611 10.461 11.4673 10.4702C11.4735 10.4794 11.4768 10.4902 11.4768 10.5013C11.4768 10.5161 11.4708 10.5304 11.4603 10.5409C11.4498 10.5514 11.4355 10.5573 11.4206 10.5573L11.4209 10.5575Z" fill="black"/>
<path id="Vector_12" d="M22.425 10.8193C22.3248 10.8193 22.2269 10.849 22.1436 10.9047C22.0603 10.9603 21.9954 11.0394 21.957 11.132C21.9187 11.2246 21.9086 11.3264 21.9282 11.4247C21.9477 11.5229 21.996 11.6132 22.0668 11.684C22.1377 11.7548 22.2279 11.8031 22.3262 11.8226C22.4244 11.8422 22.5263 11.8321 22.6188 11.7938C22.7114 11.7555 22.7905 11.6905 22.8462 11.6073C22.9018 11.524 22.9315 11.426 22.9315 11.3258C22.9314 11.1915 22.878 11.0628 22.783 10.9678C22.688 10.8729 22.5593 10.8195 22.425 10.8193ZM22.425 11.3818C22.4139 11.3818 22.4031 11.3785 22.3939 11.3724C22.3847 11.3662 22.3775 11.3575 22.3733 11.3472C22.3691 11.337 22.368 11.3257 22.3701 11.3149C22.3723 11.304 22.3776 11.2941 22.3855 11.2862C22.3933 11.2784 22.4033 11.2731 22.4141 11.2709C22.425 11.2688 22.4362 11.2699 22.4465 11.2741C22.4567 11.2784 22.4654 11.2855 22.4716 11.2947C22.4777 11.304 22.481 11.3148 22.481 11.3258C22.4809 11.3407 22.475 11.3549 22.4645 11.3653C22.454 11.3758 22.4398 11.3817 22.425 11.3818Z" fill="black"/>
</g>
<defs>
<clipPath id="clip0_13_3402">
<rect width="24" height="24" fill="white"/>
</clipPath>
</defs>
</svg>
