<svg width="24" height="24" viewBox="0 0 24 24" fill="none" xmlns="http://www.w3.org/2000/svg">
<g id="ice-cream 1">
<path id="Vector" d="M6.21582 11.868C6.21639 12.2892 6.3837 12.6929 6.68116 12.9911C6.97862 13.2892 7.38203 13.4574 7.80318 13.459C7.69178 13.6413 7.63197 13.8504 7.63014 14.064V14.28C7.62947 14.5468 7.7202 14.8058 7.88723 15.0138C8.05426 15.2218 8.28751 15.3664 8.54814 15.4234L10.3438 20.9206C10.4111 21.1241 10.5411 21.3011 10.7152 21.4261C10.8893 21.5511 11.0986 21.6178 11.3129 21.6166H12.6848C12.8991 21.6178 13.1084 21.5511 13.2825 21.4261C13.4566 21.3011 13.5866 21.1241 13.6539 20.9206L15.4508 15.4224C15.7114 15.3656 15.9448 15.2213 16.112 15.0135C16.2792 14.8056 16.3701 14.5468 16.3697 14.28V14.064C16.3681 13.8502 16.3078 13.6409 16.1955 13.459C16.6168 13.4578 17.0205 13.2897 17.3182 12.9915C17.6159 12.6933 17.7833 12.2893 17.7838 11.868V11.7744C17.7834 11.5084 17.7034 11.2485 17.5542 11.0283C17.4049 10.8081 17.1932 10.6376 16.9462 10.5386C17.1514 10.2233 17.2727 9.86084 17.2986 9.48554C17.3245 9.11024 17.2542 8.73454 17.0943 8.39401C16.873 7.92217 16.491 7.5445 16.0167 7.32865C16.076 7.05371 16.1059 6.77326 16.106 6.49201C16.106 5.40292 15.6733 4.35844 14.9032 3.58834C14.1331 2.81824 13.0887 2.3856 11.9996 2.3856C10.9105 2.3856 9.86602 2.81824 9.09592 3.58834C8.32582 4.35844 7.89318 5.40292 7.89318 6.49201C7.89322 6.77359 7.92323 7.05437 7.9827 7.32961C7.69446 7.46202 7.43811 7.65494 7.23106 7.89525C7.02401 8.13555 6.87112 8.41761 6.78277 8.72226C6.69443 9.02691 6.6727 9.34701 6.71907 9.6608C6.76544 9.97459 6.87882 10.2747 7.0515 10.5408C6.80528 10.6399 6.59423 10.8103 6.44536 11.03C6.2965 11.2498 6.21657 11.509 6.21582 11.7744V11.868ZM13.1072 20.742C13.0784 20.8305 13.0218 20.9075 12.9459 20.9614C12.8701 21.0153 12.7788 21.0434 12.6857 21.0415H11.3139C11.221 21.0425 11.1301 21.0141 11.0544 20.9602C10.9787 20.9063 10.922 20.8299 10.8925 20.7418L9.1659 15.4594H14.8337L13.1072 20.742ZM15.7937 14.28C15.7947 14.4345 15.7355 14.5832 15.6287 14.6948C15.5219 14.8065 15.3759 14.8722 15.2216 14.8781C15.218 14.8781 15.2144 14.8793 15.2108 14.8795H15.2053C15.1948 14.8802 15.1844 14.8815 15.1741 14.8834H8.82558C8.81534 14.8816 8.805 14.8805 8.79462 14.88H8.78886C8.78526 14.88 8.78166 14.88 8.77806 14.8786C8.62363 14.8726 8.47756 14.8069 8.37077 14.6952C8.26398 14.5834 8.20485 14.4345 8.2059 14.28V14.064C8.20559 13.9815 8.22231 13.8998 8.25502 13.824C8.28772 13.7482 8.33571 13.68 8.39598 13.6236C8.50844 13.5188 8.65629 13.4604 8.80998 13.4599H15.1897C15.2656 13.4593 15.341 13.4736 15.4114 13.5022C15.4818 13.5308 15.5458 13.573 15.5998 13.6265C15.661 13.6817 15.7099 13.7492 15.7433 13.8246C15.7766 13.9 15.7936 13.9816 15.7933 14.064L15.7937 14.28ZM12.0022 2.9592C12.9382 2.96092 13.8353 3.33383 14.4967 3.99612C15.1581 4.65842 15.5298 5.55602 15.5302 6.49201C15.5302 6.71423 15.5085 6.93592 15.4654 7.15392C15.4532 7.15176 15.4397 7.15104 15.4273 7.14936C15.4112 7.14697 15.3944 7.14553 15.3778 7.14361C15.2823 7.13181 15.1861 7.12572 15.0898 7.12537C15.0488 7.12463 15.0077 7.12752 14.9672 7.13401C14.5606 7.1495 14.1673 7.28347 13.8358 7.51944C13.5929 7.68133 13.3857 7.89124 13.2269 8.13625C12.8628 7.89487 12.4355 7.76614 11.9986 7.76614C11.5617 7.76614 11.1345 7.89487 10.7703 8.13625C10.5663 7.82921 10.2904 7.57663 9.96658 7.40046C9.64277 7.22429 9.28083 7.12985 8.91222 7.12537C8.81739 7.12575 8.72267 7.13168 8.62854 7.14313C8.61078 7.14529 8.59254 7.14697 8.57526 7.14961C8.55798 7.15225 8.54694 7.15225 8.53326 7.15465C8.48998 6.93642 8.4682 6.71448 8.46822 6.49201C8.4693 5.55517 8.84202 4.65704 9.50457 3.99471C10.1671 3.33238 11.0654 2.95997 12.0022 2.9592ZM8.41038 7.77912C8.42022 7.776 8.4291 7.77049 8.4387 7.76641L8.3571 7.49592L8.4699 7.75224L8.4723 7.75753C8.70458 7.69557 8.94759 7.6851 9.18434 7.72685C9.42108 7.76859 9.64586 7.86155 9.84294 7.99921C10.0971 8.16785 10.2963 8.40733 10.4158 8.68801C10.4341 8.73051 10.4624 8.76797 10.4982 8.79723C10.5341 8.82649 10.5764 8.84669 10.6217 8.85611C10.667 8.86552 10.7139 8.86389 10.7585 8.85134C10.803 8.83879 10.8439 8.81569 10.8776 8.78401C11.1824 8.49946 11.5838 8.3412 12.0008 8.3412C12.4178 8.3412 12.8192 8.49946 13.124 8.78401C13.1478 8.80567 13.1751 8.82304 13.2049 8.83537C13.2118 8.83849 13.2188 8.84161 13.226 8.84425C13.2552 8.85476 13.2859 8.86059 13.3169 8.86153H13.3208C13.3771 8.86135 13.4321 8.84469 13.479 8.81359C13.5259 8.7825 13.5627 8.73834 13.5848 8.68657C13.7056 8.40264 13.9074 8.16057 14.1649 7.99057C14.4131 7.81325 14.7088 7.71421 15.0137 7.70617C15.032 7.70561 15.0501 7.70336 15.068 7.69945H15.092C15.2378 7.69708 15.3833 7.7155 15.524 7.75417L15.5518 7.76185C15.5643 7.76781 15.5771 7.77294 15.5902 7.7772C15.8048 7.84432 16.0031 7.95532 16.1725 8.10315C16.3419 8.25098 16.4787 8.43241 16.5742 8.63593C16.6763 8.85375 16.7292 9.09136 16.7293 9.33193C16.7312 9.67102 16.6268 10.0022 16.4307 10.2789C16.2347 10.5555 15.9569 10.7638 15.6363 10.8744C15.4638 10.9448 15.2787 10.9793 15.0925 10.9759C14.6953 10.9769 14.3118 10.8311 14.0156 10.5665C13.9978 10.5491 13.9788 10.533 13.9587 10.5185C13.8954 10.4725 13.8166 10.4529 13.7391 10.464C13.6936 10.4707 13.6502 10.4875 13.6121 10.5133C13.574 10.539 13.5422 10.5731 13.519 10.6128C13.5133 10.6224 13.5073 10.6334 13.5015 10.6418C13.4883 10.6583 13.4769 10.6762 13.4677 10.6951C13.3568 10.9242 13.1935 11.1239 12.9912 11.2782C12.7888 11.4324 12.5529 11.5369 12.3027 11.5831C12.2936 11.5846 12.2847 11.5866 12.2758 11.5891C12.1866 11.6093 12.095 11.6174 12.0037 11.6131C11.6954 11.6141 11.3931 11.5278 11.1318 11.3641C10.8705 11.2004 10.661 10.966 10.5274 10.6882C10.5194 10.6713 10.5097 10.6552 10.4986 10.6402L10.4965 10.6356C10.4885 10.62 10.4804 10.6044 10.4725 10.5902C10.451 10.5546 10.4221 10.524 10.3876 10.5006C10.3532 10.4772 10.3141 10.4615 10.2731 10.4547C10.232 10.4478 10.1899 10.45 10.1498 10.4609C10.1096 10.4719 10.0723 10.4915 10.0405 10.5182C10.0217 10.5321 10.004 10.5474 9.98766 10.5641C9.69418 10.8319 9.31071 10.9795 8.91342 10.9776C8.52235 10.9787 8.14379 10.8398 7.84616 10.5862C7.54854 10.3325 7.35148 9.98068 7.29061 9.59437C7.22974 9.20806 7.30907 8.81273 7.51426 8.47981C7.71945 8.14689 8.03697 7.89835 8.40942 7.77912H8.41038ZM6.79182 11.7744C6.79114 11.587 6.86064 11.4061 6.98666 11.2673C7.11267 11.1285 7.28606 11.042 7.4727 11.0246C7.4847 11.0347 7.4967 11.0436 7.5099 11.0537C7.53246 11.0719 7.55526 11.0897 7.57854 11.1072C7.61054 11.1309 7.64254 11.1538 7.67454 11.1761C7.69854 11.1922 7.72254 11.2078 7.74654 11.2241C7.7799 11.2447 7.81398 11.2642 7.8483 11.2829C7.8723 11.2968 7.8987 11.3105 7.92462 11.3232C7.95966 11.3407 7.99662 11.3566 8.03166 11.3712C8.05806 11.3825 8.08398 11.394 8.11062 11.4043C8.14782 11.4187 8.1855 11.431 8.22342 11.4434C8.25006 11.4521 8.27646 11.4612 8.30358 11.4689C8.34318 11.4802 8.38374 11.489 8.42358 11.4982C8.4495 11.5039 8.47518 11.5106 8.50158 11.5154C8.54646 11.5238 8.59182 11.5294 8.63742 11.5351C8.65998 11.5378 8.68206 11.5418 8.70486 11.544C8.77326 11.5502 8.84214 11.5538 8.91174 11.5538C9.34902 11.5542 9.77627 11.4229 10.1379 11.177C10.3379 11.4897 10.6137 11.7467 10.9396 11.9241C11.2656 12.1016 11.6311 12.1937 12.0022 12.192C12.1417 12.196 12.281 12.1816 12.4167 12.149C12.7103 12.0931 12.9895 11.9779 13.2371 11.8105C13.4847 11.643 13.6955 11.4268 13.8567 11.1751C14.2207 11.4225 14.6507 11.5545 15.0908 11.5538C15.3486 11.558 15.6046 11.51 15.8434 11.4127C15.9109 11.3887 15.9764 11.3616 16.0407 11.3316C16.0623 11.3218 16.0827 11.31 16.1041 11.2992C16.1463 11.2778 16.1883 11.2558 16.2293 11.2315C16.2533 11.2174 16.2757 11.2022 16.2985 11.1874C16.3359 11.1634 16.3726 11.1394 16.4084 11.1118C16.4309 11.0952 16.453 11.0779 16.4749 11.0602C16.4912 11.0472 16.5085 11.0362 16.5245 11.022C16.7115 11.0402 16.885 11.1274 17.0113 11.2664C17.1376 11.4055 17.2076 11.5866 17.2078 11.7744V11.868C17.2075 12.1372 17.1004 12.3952 16.9101 12.5855C16.7198 12.7758 16.4618 12.8829 16.1926 12.8832H7.80702C7.53787 12.8829 7.27983 12.7758 7.08952 12.5855C6.8992 12.3952 6.79214 12.1372 6.79182 11.868V11.7744Z" fill="black"/>
<path id="Vector_2" d="M8.47065 7.752C8.46081 7.75776 8.44977 7.76136 8.43945 7.76616C8.45037 7.76267 8.46084 7.75792 8.47065 7.752Z" fill="black"/>
</g>
</svg>
