<svg width="24" height="24" viewBox="0 0 24 24" fill="none" xmlns="http://www.w3.org/2000/svg">
<g id="like 1">
<path id="Vector" d="M7.25612 9.79881H6.50304C6.41702 9.79881 6.33453 9.76464 6.2737 9.70382C6.21288 9.643 6.17871 9.5605 6.17871 9.47449C6.17871 9.38847 6.21288 9.30598 6.2737 9.24516C6.33453 9.18433 6.41702 9.15016 6.50304 9.15016H7.25612C7.54252 9.14908 7.82391 9.0749 8.07364 8.93466C8.32336 8.79442 8.53315 8.59275 8.68314 8.34876L9.54585 6.94054C10.6894 5.06789 11.1772 3.44108 11.1772 1.50162C11.1771 1.2756 11.2668 1.05879 11.4265 0.898845C11.5862 0.7389 11.8028 0.648909 12.0289 0.648651H12.2436C13.1267 0.649681 13.9734 1.00098 14.5978 1.62548C15.2222 2.24997 15.5734 3.09666 15.5744 3.97979C15.5742 5.63765 15.2055 7.27474 14.495 8.77265L14.2972 9.22476C14.2611 9.30093 14.1968 9.36006 14.1178 9.38962C14.0389 9.41918 13.9516 9.41685 13.8743 9.38312C13.7971 9.34939 13.736 9.28691 13.704 9.20891C13.672 9.13092 13.6717 9.04355 13.703 8.9653L13.9009 8.51319C14.5782 7.09818 14.9285 5.54889 14.9257 3.98011C14.9251 3.26888 14.6424 2.58695 14.1395 2.08397C13.6367 1.58099 12.9548 1.29807 12.2436 1.2973H12.0289C11.9751 1.29739 11.9236 1.31876 11.8855 1.35674C11.8475 1.39473 11.826 1.44624 11.8258 1.5C11.8258 3.54 11.2933 5.32152 10.0995 7.27687L9.23839 8.6867C9.03005 9.02556 8.73861 9.30559 8.39169 9.50021C8.04478 9.69484 7.6539 9.79762 7.25612 9.79881Z" fill="black"/>
<path id="Vector_2" d="M16.9096 12.6623C16.8236 12.6623 16.7411 12.6281 16.6803 12.5673C16.6195 12.5065 16.5853 12.424 16.5853 12.338C16.5853 12.2519 16.6195 12.1694 16.6803 12.1086C16.7411 12.0478 16.8236 12.0136 16.9096 12.0136H20.0951C20.4392 12.0136 20.7692 11.8769 21.0125 11.6337C21.2558 11.3904 21.3924 11.0604 21.3924 10.7163C21.3924 10.3723 21.2558 10.0423 21.0125 9.799C20.7692 9.55571 20.4392 9.41903 20.0951 9.41903H14.0001C13.9141 9.41903 13.8316 9.38486 13.7708 9.32404C13.71 9.26322 13.6758 9.18073 13.6758 9.09471C13.6758 9.00869 13.71 8.9262 13.7708 8.86538C13.8316 8.80456 13.9141 8.77039 14.0001 8.77039H20.0938C20.6099 8.77039 21.1049 8.9754 21.4698 9.34034C21.8348 9.70528 22.0398 10.2002 22.0398 10.7163C22.0398 11.2324 21.8348 11.7274 21.4698 12.0923C21.1049 12.4573 20.6099 12.6623 20.0938 12.6623H16.9083H16.9096Z" fill="black"/>
<path id="Vector_3" d="M20.7424 15.9058H16.1837C16.0977 15.9058 16.0152 15.8717 15.9544 15.8108C15.8935 15.75 15.8594 15.6675 15.8594 15.5815C15.8594 15.4955 15.8935 15.413 15.9544 15.3522C16.0152 15.2914 16.0977 15.2572 16.1837 15.2572H20.7424C21.0865 15.2572 21.4164 15.1205 21.6597 14.8772C21.903 14.6339 22.0397 14.304 22.0397 13.9599C22.0397 13.6158 21.903 13.2859 21.6597 13.0426C21.4164 12.7993 21.0865 12.6626 20.7424 12.6626H16.9095C16.8235 12.6626 16.741 12.6284 16.6802 12.5676C16.6194 12.5068 16.5852 12.4243 16.5852 12.3383C16.5852 12.2523 16.6194 12.1698 16.6802 12.1089C16.741 12.0481 16.8235 12.0139 16.9095 12.0139H20.7424C21.2585 12.0139 21.7535 12.219 22.1184 12.5839C22.4833 12.9488 22.6883 13.4438 22.6883 13.9599C22.6883 14.476 22.4833 14.9709 22.1184 15.3359C21.7535 15.7008 21.2585 15.9058 20.7424 15.9058Z" fill="black"/>
<path id="Vector_4" d="M20.094 19.1494H15.4562C15.3701 19.1494 15.2877 19.1152 15.2268 19.0544C15.166 18.9936 15.1318 18.9111 15.1318 18.8251C15.1318 18.7391 15.166 18.6566 15.2268 18.5957C15.2877 18.5349 15.3701 18.5008 15.4562 18.5008H20.094C20.4381 18.5008 20.768 18.3641 21.0113 18.1208C21.2546 17.8775 21.3913 17.5475 21.3913 17.2035C21.3913 16.8594 21.2546 16.5294 21.0113 16.2861C20.768 16.0428 20.4381 15.9062 20.094 15.9062H16.1839C16.0979 15.9062 16.0154 15.872 15.9546 15.8112C15.8938 15.7503 15.8596 15.6678 15.8596 15.5818C15.8596 15.4958 15.8938 15.4133 15.9546 15.3525C16.0154 15.2917 16.0979 15.2575 16.1839 15.2575H20.094C20.6101 15.2575 21.1051 15.4625 21.47 15.8275C21.8349 16.1924 22.0399 16.6874 22.0399 17.2035C22.0399 17.7196 21.8349 18.2145 21.47 18.5794C21.1051 18.9444 20.6101 19.1494 20.094 19.1494Z" fill="black"/>
<path id="Vector_5" d="M18.7966 22.3927H9.74111C8.51338 22.3948 7.31569 22.0131 6.31559 21.301C6.27946 21.2769 6.24852 21.2459 6.2246 21.2097C6.20068 21.1735 6.18427 21.1328 6.17635 21.0902C6.16843 21.0475 6.16915 21.0037 6.17847 20.9613C6.18779 20.9189 6.20553 20.8788 6.23062 20.8434C6.25572 20.808 6.28766 20.778 6.32457 20.7552C6.36147 20.7323 6.40258 20.7171 6.44547 20.7105C6.48836 20.7038 6.53214 20.7058 6.57423 20.7164C6.61632 20.727 6.65586 20.7459 6.69051 20.772C7.58109 21.4064 8.64768 21.7466 9.74111 21.745H18.7966C19.1406 21.745 19.4706 21.6083 19.7139 21.365C19.9572 21.1217 20.0939 20.7917 20.0939 20.4477C20.0939 20.1036 19.9572 19.7736 19.7139 19.5304C19.4706 19.2871 19.1406 19.1504 18.7966 19.1504H15.456C15.37 19.1504 15.2875 19.1162 15.2267 19.0554C15.1659 18.9946 15.1317 18.9121 15.1317 18.8261C15.1317 18.74 15.1659 18.6576 15.2267 18.5967C15.2875 18.5359 15.37 18.5017 15.456 18.5017H18.7966C19.3127 18.5017 19.8076 18.7068 20.1726 19.0717C20.5375 19.4366 20.7425 19.9316 20.7425 20.4477C20.7425 20.9638 20.5375 21.4587 20.1726 21.8237C19.8076 22.1886 19.3127 22.3936 18.7966 22.3936V22.3927Z" fill="black"/>
<path id="Vector_6" d="M5.63606 23.3513H2.36331C2.08446 23.351 1.81714 23.2401 1.61996 23.0429C1.42279 22.8457 1.31187 22.5784 1.31152 22.2996V8.44475C1.3123 8.16619 1.42341 7.89928 1.62053 7.70246C1.81766 7.50563 2.08474 7.39493 2.36331 7.39459H5.63606C5.91491 7.39494 6.18223 7.50586 6.37941 7.70303C6.57658 7.90021 6.6875 8.16753 6.68785 8.44638V22.2996C6.6875 22.5784 6.57658 22.8457 6.37941 23.0429C6.18223 23.2401 5.91491 23.351 5.63606 23.3513ZM2.36331 8.04324C2.25644 8.04341 2.154 8.08594 2.07844 8.16151C2.00287 8.23707 1.96034 8.33951 1.96017 8.44638V22.2996C1.96034 22.4064 2.00287 22.5089 2.07844 22.5844C2.154 22.66 2.25644 22.7025 2.36331 22.7027H5.63606C5.74293 22.7025 5.84537 22.66 5.92093 22.5844C5.9965 22.5089 6.03903 22.4064 6.0392 22.2996V8.44475C6.0386 8.33817 5.99588 8.23615 5.92036 8.16093C5.84484 8.08572 5.74265 8.04341 5.63606 8.04324H2.36331Z" fill="black"/>
</g>
</svg>
