<svg width="24" height="24" viewBox="0 0 24 24" fill="none" xmlns="http://www.w3.org/2000/svg">
<g id="love 1">
<path id="Vector" d="M18.8879 9.976C19.0919 9.312 19.1999 8.64 19.1999 7.976C19.1999 5.404 17.2279 3.312 14.7999 3.312C13.1479 3.312 11.6319 4.212 10.7999 5.62C9.9679 4.212 8.4519 3.312 6.7999 3.312C4.3719 3.312 2.3999 5.404 2.3999 7.976C2.3999 13.84 10.2759 18.104 10.6119 18.284C10.6719 18.316 10.7359 18.332 10.7999 18.332C10.8639 18.332 10.9279 18.316 10.9879 18.284C10.9999 18.276 11.2879 18.124 11.7439 17.84C13.3439 19.52 15.2719 20.568 15.4119 20.64C15.4719 20.672 15.5359 20.688 15.5999 20.688C15.6639 20.688 15.7279 20.672 15.7879 20.64C16.0239 20.516 21.5999 17.492 21.5999 13.32C21.5999 11.628 20.4199 10.228 18.8879 9.976ZM10.7999 17.472C9.6119 16.792 3.1999 12.884 3.1999 7.976C3.1999 5.844 4.8159 4.112 6.7999 4.112C8.1399 4.112 9.7799 4.908 10.4239 6.692C10.4799 6.852 10.6319 6.956 10.7999 6.956C10.9679 6.956 11.1199 6.852 11.1759 6.692C11.8199 4.908 13.4599 4.112 14.7999 4.112C16.7839 4.112 18.3999 5.844 18.3999 7.976C18.3999 8.632 18.2799 9.296 18.0519 9.956C17.0559 10.06 16.1559 10.612 15.5999 11.444C14.9799 10.516 13.9319 9.932 12.7999 9.932C11.0359 9.932 9.5999 11.452 9.5999 13.32C9.5999 14.796 10.2959 16.124 11.2039 17.232C11.0399 17.332 10.8999 17.416 10.7999 17.472ZM15.5999 19.828C14.6439 19.272 10.3999 16.616 10.3999 13.32C10.3999 11.892 11.4759 10.732 12.7999 10.732C13.6959 10.732 14.7919 11.264 15.2239 12.46C15.2799 12.62 15.4319 12.724 15.5999 12.724C15.7679 12.724 15.9199 12.62 15.9759 12.46C16.4079 11.268 17.5039 10.732 18.3999 10.732C19.7239 10.732 20.7999 11.892 20.7999 13.32C20.7999 16.616 16.5559 19.272 15.5999 19.828Z" fill="black"/>
</g>
</svg>
